<svg width="1000" height="1000" viewBox="0 0 1000 1000" fill="none" xmlns="http://www.w3.org/2000/svg">
<rect width="1000" height="1000" rx="40" fill="#2A8DA9"/>
<path d="M485.222 172.552C464.45 174.194 448.522 176.903 431.199 181.83C366.01 200.467 310.345 245.787 278.736 306.05C263.136 335.853 253.777 368.036 250.821 402.273C250.328 408.677 250 485.196 250 620.007V827.971H500H750V615.491C750 434.375 749.836 401.534 748.768 392.831C737.603 297.347 671.593 215.984 580.213 185.196C550.821 175.261 513.3 170.253 485.222 172.552ZM525.452 179.777C582.184 185.77 633.415 210.319 673.563 250.795C692.118 269.514 706.897 290.286 718.801 314.424C732.841 342.913 740.558 370.335 743.432 401.862C743.924 408.02 744.253 482.404 744.253 616.723V822.224H500.411H256.568L256.814 609.744C257.061 377.56 256.732 395.623 261.576 371.977C277.915 293.16 334.893 225.426 409.934 195.869C432.923 186.838 458.046 180.844 480.706 179.12C490.805 178.299 515.189 178.71 525.452 179.777Z" fill="#F9F9F9"/>
<path d="M487.685 186.099C404.105 189.793 327.094 239.958 289.08 315.409C274.138 345.048 266.256 374.112 263.957 408.02C263.465 415.738 263.136 493.57 263.136 617.544V814.835H500H736.864V610.565C736.864 436.674 736.7 404.818 735.632 396.115C730.624 352.683 715.189 314.178 688.916 279.12C680.213 267.544 658.785 245.623 647.209 236.509C619.294 214.588 585.386 198.496 550.903 190.943C531.773 186.756 510.099 185.114 487.685 186.099ZM517.323 192.503C564.122 196.197 607.635 213.275 644.089 242.257C653.12 249.399 673.399 269.761 680.542 278.71C709.934 315.82 726.765 359.252 730.296 407.199C731.281 421.156 731.363 468.611 730.378 468.201C726.273 466.641 665.517 438.316 665.435 437.905C665.435 437.659 666.42 437.084 667.734 436.674L669.951 435.853L666.502 434.046C664.532 432.979 662.972 431.583 662.972 430.844C662.972 426.165 677.668 414.588 699.343 402.191C710.016 396.115 709.852 395.951 693.842 395.951C681.117 396.033 673.727 397.593 663.054 402.683C654.762 406.706 647.455 411.797 639.984 418.775L634.483 423.948L567.652 393.16C506.076 364.67 500.657 362.371 498.358 363.11C497.044 363.603 445.074 387.413 383.005 416.148L270.115 468.283L269.869 442.257C269.458 405.147 271.182 387.495 277.504 363.439C285.386 333.472 300.903 302.766 320.443 278.299C337.028 257.692 360.673 237.248 384.319 223.209C423.481 200.056 471.675 188.89 517.323 192.503ZM565.517 399.071C600.411 415.163 629.146 428.463 629.475 428.71C629.803 428.874 627.915 431.912 625.287 435.36C615.681 448.004 604.351 468.611 598.03 484.949C596.47 488.972 594.992 492.174 594.745 492.174C594.499 492.174 593.432 490.04 592.365 487.413C589.163 479.531 581.034 463.685 576.19 455.885C562.89 434.293 547.865 419.432 531.199 411.222C520.279 405.803 512.808 404.161 500.164 404.079L489.737 403.997L490.23 401.124C491.461 394.473 500.575 369.843 501.806 369.843C501.97 369.843 530.706 382.979 565.517 399.071ZM490.148 380.434C485.057 393.57 483.087 402.109 482.594 413.028C481.773 430.844 485.878 440.204 498.358 449.153L500.739 450.795L499.015 453.669C492.693 463.767 464.204 482.733 420.361 505.968C404.926 514.096 357.964 537.659 348.851 541.846L343.021 544.473L337.356 540.943C323.317 531.994 307.143 528.546 289.409 530.598L284.893 531.173L292.036 535.114C302.299 540.779 322.167 554.161 321.346 554.9C321.182 555.064 317.323 556.871 312.808 558.923C308.292 560.976 297.619 565.82 288.998 569.761C280.46 573.702 272.578 577.232 271.593 577.642L269.704 578.381V526.821V475.344L381.199 423.948C442.447 395.623 492.693 372.634 492.857 372.716C492.939 372.798 491.708 376.247 490.148 380.434ZM684.729 403.422C684.236 403.751 681.117 405.968 677.75 408.184C663.957 417.38 656.404 425.508 656.404 431.173C656.404 433.636 655.993 434.046 651.314 436.427C634.811 444.72 623.974 457.199 621.675 470.5L620.772 475.672L616.667 476.575C614.368 477.068 611.084 478.381 609.442 479.449L606.404 481.501L607.143 479.531C607.471 478.463 609.688 473.866 611.987 469.35C627.094 439.301 644.663 419.022 664.614 408.841C671.839 405.064 687.438 400.877 684.729 403.422ZM496.634 411.386C511.987 420.253 526.437 431.173 529.392 436.263L530.87 438.726L527.011 441.189L523.153 443.57L527.75 444.884C530.296 445.623 535.796 448.004 539.984 450.138C550.246 455.311 560.099 464.752 562.726 471.977C564.696 477.232 565.764 485.442 564.696 487.002C564.122 487.741 562.315 487.495 557.061 485.935C544.417 482.24 532.266 480.516 518.883 480.434C494.335 480.434 478.818 486.756 464.039 502.93C460.673 506.706 457.964 509.908 458.046 510.073C458.21 510.155 463.3 509.005 469.458 507.363C475.616 505.721 483.662 503.915 487.438 503.258C494.828 501.862 506.24 501.452 507.8 502.437C508.703 503.012 508.456 506.789 507.225 509.908C506.897 510.729 508.621 510.237 512.397 508.348C521.921 503.504 529.228 501.616 538.588 501.616C545.731 501.616 547.373 501.945 551.314 503.751C555.419 505.721 561.987 511.468 563.793 514.752C564.778 516.477 566.092 515.573 566.092 513.11C566.092 509.662 570.033 506.214 575.041 505.311C578.9 504.572 588.506 505.311 589.573 506.378C589.737 506.542 586.125 508.02 581.445 509.744C546.716 522.47 516.502 545.459 505.501 567.38C500.082 578.053 499.179 582.486 499.179 596.608C499.179 604.736 498.851 609.58 498.358 609.58C497.947 609.58 495.731 609.005 493.596 608.348C491.379 607.692 485.632 606.706 480.788 606.214C461.494 604.079 435.632 609.087 409.688 619.761C404.762 621.813 400.575 623.373 400.493 623.209C400 622.798 405.911 615.081 408.292 613.028C411.494 610.319 416.256 607.938 418.637 607.938C419.787 607.938 421.921 608.677 423.399 609.58C424.877 610.483 426.273 611.222 426.519 611.222C426.765 611.222 426.929 607.281 426.929 602.355C426.929 594.309 427.176 593.16 429.31 589.137C431.938 584.046 437.438 577.889 442.939 573.866C447.865 570.253 458.949 564.752 463.711 563.521C465.846 563.028 467.57 562.289 467.57 561.879C467.57 561.468 466.092 560.401 464.286 559.498C462.479 558.595 461.002 557.61 461.002 557.281C461.002 557.035 461.741 555.557 462.726 554.079C465.928 548.825 481.117 537.659 497.537 528.381C501.642 526.082 505.501 523.948 506.158 523.537C508.292 522.306 489.984 521.485 482.512 522.552C458.374 525.836 436.7 541.682 418.145 569.761C411.002 580.598 401.232 599.399 396.962 610.647C395.402 614.588 394.007 617.79 393.76 617.79C393.514 617.79 391.79 614.178 389.984 609.826C385.632 599.317 376.847 583.307 370.361 573.948C364.286 565.327 353.695 553.012 350.493 550.877L348.276 549.481L382.266 532.486C470.279 488.398 506.158 464.835 506.158 450.877C506.158 447.511 505.501 446.69 497.701 440.204C493.186 436.509 489.984 430.434 488.834 423.127C488.013 418.201 488.506 407.61 489.491 407.61C489.737 407.61 492.939 409.334 496.634 411.386ZM520.525 413.357C537.767 419.268 553.366 432.897 567.816 454.654C573.645 463.521 583.169 480.926 584.483 485.36L585.057 487.166L581.527 485.278C579.557 484.211 576.437 483.061 574.631 482.733L571.264 482.24L570.772 477.725C569.458 465.081 558.456 452.273 541.708 443.816C536.946 441.436 536.535 441.025 536.535 438.562C536.535 432.897 530.213 426.082 515.599 415.82L508.21 410.729L512.151 411.304C514.286 411.55 518.062 412.536 520.525 413.357ZM694.171 458.348L730.706 475.344L730.87 490.943L731.117 506.542L726.355 501.452C714.696 488.89 701.396 482.651 681.773 480.598C662.479 478.546 634.811 484.046 610.099 494.72C605.993 496.444 602.299 497.922 601.97 497.922C600.821 497.922 604.023 493.406 607.964 489.137C611.741 485.278 616.831 482.404 620.033 482.322C621.1 482.322 623.071 483.061 624.548 483.964C626.026 484.867 627.422 485.606 627.668 485.606C627.915 485.606 628.079 481.83 628.079 477.15C628.079 469.35 628.243 468.365 630.788 463.275C632.594 459.58 635.057 456.296 638.67 452.93C644.171 447.839 654.269 441.271 656.404 441.353C657.061 441.353 674.056 449.071 694.171 458.348ZM531.609 487.248C535.468 487.741 542.447 489.055 547.209 490.204C564.204 494.145 577.833 499.564 571.1 499.564C570.279 499.564 568.227 500.549 566.502 501.698L563.383 503.751L559.77 501.206C553.53 496.69 547.947 495.13 538.177 495.212C531.445 495.294 527.997 495.705 522.332 497.429L515.107 499.564L512.644 497.757C509.278 495.212 499.261 494.802 488.588 496.608C478.407 498.332 477.997 498.25 482.348 495.623C489.245 491.271 497.291 488.644 508.621 486.92C512.972 486.263 524.959 486.427 531.609 487.248ZM692.939 488.808C700.164 490.697 708.21 494.227 711.412 496.936L713.465 498.578L707.718 497.347C704.434 496.608 697.701 496.033 691.954 495.951C682.677 495.869 681.856 496.033 679.31 497.839L676.683 499.81L671.264 498.086C656.076 493.16 642.447 494.145 632.594 500.795C628.325 503.669 628.325 503.669 626.19 502.109C624.959 501.288 622.496 500.138 620.772 499.564L617.57 498.496L620.361 497.347C628.654 493.816 647.865 488.972 661.741 486.92C667.898 486.017 686.535 487.166 692.939 488.808ZM577.011 490.04C579.475 491.107 585.55 495.869 583.744 495.294C579.228 493.899 570.197 490.04 570.197 489.547C570.197 488.48 574.138 488.808 577.011 490.04ZM668.309 503.669C671.511 504.654 676.19 506.624 678.9 507.938C681.527 509.252 683.826 510.155 684.072 509.991C684.236 509.744 684.072 508.184 683.58 506.46C683.005 504.49 683.005 503.012 683.498 502.519C684.729 501.288 696.305 501.698 704.516 503.258C712.89 504.736 727.586 508.431 729.721 509.58C731.034 510.237 731.117 514.424 731.117 579.613V648.989L673.892 648.825L616.585 648.578L608.456 582.651C604.023 546.362 600.575 516.477 600.903 516.23C601.642 515.491 607.143 520.089 610.263 524.112C613.383 528.217 613.711 532.486 611.248 535.688C610.345 536.838 609.606 537.987 609.606 538.234C609.606 538.48 612.644 538.562 616.42 538.316C626.273 537.823 631.199 539.876 638.752 547.511C644.91 553.751 649.425 561.386 652.627 570.828L654.516 576.329L656.322 572.798C657.307 570.91 658.621 569.35 659.36 569.35C662.726 569.35 674.384 584.375 683.908 600.959C686.453 605.475 688.834 609.498 689.163 609.826C690.23 610.976 690.887 594.309 690.066 588.069C688.506 576.903 685.468 569.35 678.407 558.841C665.928 540.368 639.409 521.895 608.703 510.237C604.105 508.595 600.739 506.953 601.149 506.706C602.874 505.639 612.479 504.49 615.681 504.9C621.264 505.803 624.138 507.938 625.452 512.289L626.519 516.066L630.049 511.879C634.154 507.035 638.095 504.325 643.76 502.519C649.179 500.795 660.673 501.288 668.309 503.669ZM583.744 578.874C579.475 614.096 575.698 644.227 575.452 645.869L574.959 648.989H505.747H436.535L427.668 644.473C422.742 642.01 415.025 638.48 410.509 636.756C405.993 635.032 401.56 633.307 400.657 632.979C399.343 632.404 399.754 632.158 403.12 631.255C410.837 629.367 418.227 630.105 421.839 633.225C422.66 633.964 423.727 636.181 424.22 638.151C425.041 641.6 425.205 641.764 426.273 640.286C429.392 636.017 434.811 631.255 438.834 629.367C442.775 627.478 444.417 627.232 451.97 627.232C461.494 627.232 468.801 629.038 477.586 633.472C480.213 634.785 482.512 635.853 482.677 635.853C482.923 635.853 482.594 634.128 481.938 632.076C480.87 628.463 480.87 628.381 482.841 627.56C483.99 627.15 486.289 626.821 488.013 626.821C493.186 626.821 510.591 630.023 521.264 632.979C526.683 634.457 531.281 635.606 531.445 635.524C531.527 635.36 529.228 632.569 526.355 629.12C520.279 622.059 513.136 616.394 505.583 612.782C501.642 610.894 500.411 609.908 500.739 609.005C501.724 606.542 510.591 591.846 515.353 584.867C519.869 578.135 528.161 569.35 529.803 569.35C530.296 569.35 531.527 570.828 532.594 572.716L534.565 576.082L537.192 568.775C541.872 555.803 550.411 544.884 559.36 540.45C562.562 538.89 564.532 538.562 571.264 538.562C575.616 538.562 579.228 538.48 579.228 538.398C579.228 538.234 578.489 537.002 577.586 535.524C575.287 531.748 575.534 529.12 578.654 524.523C581.199 520.664 590.887 512.946 591.379 514.342C591.544 514.67 588.095 543.734 583.744 578.874ZM571.839 523.537C571.018 525.508 570.115 528.053 569.869 529.202C569.458 531.009 568.801 531.419 564.039 532.322C558.374 533.472 551.067 537.33 546.552 541.682C543.021 545.048 537.356 553.012 534.647 558.348C532.759 562.125 532.184 562.618 529.228 563.11C524.877 563.767 517.898 570.253 511.002 579.941C508.128 584.046 505.665 587.166 505.501 587.002C504.926 586.427 508.703 574.933 510.837 570.582C519.376 553.833 536.371 538.726 561.576 525.672C567.488 522.634 572.496 520.089 572.824 520.089C573.153 520.089 572.742 521.649 571.839 523.537ZM626.273 525.015C656.076 540.122 675.123 558.677 681.445 578.628C682.594 582.158 683.498 585.606 683.498 586.345C683.498 587.084 681.281 584.539 678.571 580.598C670.279 568.775 663.465 562.782 658.128 562.782C656.979 562.782 655.747 561.304 653.941 557.61C646.634 543.406 635.057 533.554 623.563 531.994C619.787 531.501 619.622 531.337 619.048 528.463C618.801 526.821 617.816 524.194 616.995 522.716C616.092 521.321 615.681 520.089 616.01 520.089C616.338 520.089 620.936 522.306 626.273 525.015ZM483.005 529.367C482.266 529.941 478.325 532.733 474.22 535.524C461.084 544.802 455.09 551.616 455.09 557.527C455.09 559.826 454.68 560.319 452.545 561.14C444.089 564.096 430.624 574.769 425.698 582.486C422.824 586.92 419.951 595.212 419.951 598.907C419.951 600.959 419.622 601.288 416.667 601.78C414.86 602.109 411.658 603.258 409.606 604.326L405.911 606.296L406.486 604.49C407.553 601.041 415.107 586.427 419.787 578.874C438.342 548.578 459.113 532.322 483.99 528.381C484.236 528.381 483.826 528.792 483.005 529.367ZM598.933 556.624C600.328 568.365 601.642 578.956 601.888 580.188C602.299 582.404 602.217 582.486 599.015 582.486C594.745 582.486 591.872 584.949 593.186 587.413C593.924 588.726 594.91 589.055 598.522 589.055C600.985 589.055 603.038 589.383 603.038 589.711C603.038 590.861 607.061 623.784 607.553 626.575L608.046 629.284H604.023C599.507 629.284 597.865 630.516 598.276 633.554C598.522 635.278 599.015 635.442 603.695 635.688C606.486 635.853 608.785 636.181 608.785 636.509C608.785 636.838 609.524 642.995 610.427 650.22C612.644 668.447 612.89 667.051 607.964 667.051C604.434 667.051 603.695 667.298 603.12 668.858C602.463 670.582 601.97 670.746 596.798 670.5C593.678 670.335 588.424 670.664 585.057 671.156C581.691 671.649 578.9 671.895 578.818 671.813C578.654 671.649 580.542 656.624 580.788 655.721C580.87 655.639 582.677 655.557 584.893 655.557C587.521 655.557 589.409 655.064 590.23 654.243C591.79 652.766 591.79 652.601 590.723 650.549C590.066 649.317 588.916 648.989 585.796 648.989C583.333 648.989 581.691 648.66 581.691 648.086C581.691 646.69 585.057 619.268 585.468 617.133C585.796 615.573 586.289 615.327 590.23 615.327C598.358 615.327 598.933 610.237 590.805 609.744C587.849 609.58 586.617 609.17 586.617 608.348C586.617 606.871 594.663 541.271 595.32 536.92C595.649 535.114 595.977 533.964 596.141 534.457C596.305 534.867 597.537 544.884 598.933 556.624ZM319.787 539.547C339.901 546.115 358.703 564.424 374.548 592.749C378.489 599.81 384.811 612.864 384.319 612.864C384.154 612.864 382.43 611.961 380.46 610.894C378.489 609.744 375.534 608.677 373.892 608.348C371.018 607.856 370.936 607.61 370.033 602.93C367.57 589.383 357.8 578.053 342.2 570.335C336.864 567.708 336.207 567.051 336.207 564.999C336.207 559.252 329.475 551.698 315.846 542.421C311.658 539.547 308.292 537.084 308.292 536.92C308.292 536.263 313.465 537.495 319.787 539.547ZM328.489 561.55C330.213 564.178 329.557 565.656 325.78 567.626L322.66 569.186L324.959 570.089C326.273 570.582 327.668 570.992 328.161 570.992C328.654 570.992 332.43 572.634 336.535 574.523C354.269 583.061 363.136 593.734 363.957 607.445C364.286 613.192 364.204 613.849 362.972 613.439C359.031 611.879 345.484 608.677 338.67 607.61C320.115 604.654 306.24 605.229 293.103 609.334C285.057 611.879 281.445 613.685 274.877 618.365L269.704 621.977V603.669V585.36L283.498 579.202C291.051 575.836 303.695 570.089 311.576 566.312C319.458 562.618 326.19 559.58 326.519 559.58C326.847 559.498 327.75 560.401 328.489 561.55ZM341.379 614.506C346.223 615.409 355.501 617.872 361.905 620.007L373.481 623.702L369.54 625.261C367.406 626.082 364.86 627.396 364.039 628.135C362.562 629.449 362.397 629.449 360.591 627.807C357.471 624.933 350.657 621.977 344.581 620.91C337.767 619.761 327.997 620.746 319.951 623.455L314.943 625.179L311.905 623.127C309.195 621.321 308.046 621.074 301.396 621.074C297.291 621.074 290.805 621.649 286.946 622.306C277.833 623.948 277.668 623.866 282.02 621.156C287.438 617.79 295.731 614.67 303.12 613.275C311.905 611.633 329.639 612.207 341.379 614.506ZM491.626 614.424C497.537 615.984 511.576 622.47 510.755 623.291C510.591 623.455 507.143 623.045 503.202 622.388C499.179 621.649 492.529 621.074 488.424 621.074C481.773 621.074 480.624 621.321 477.915 623.127L474.877 625.179L470.197 623.619C454.598 618.529 439.245 619.761 430.378 626.903C427.422 629.284 427.176 629.367 425.698 628.053C424.877 627.314 422.496 626.082 420.361 625.261L416.42 623.784L421.675 621.977C434.975 617.38 446.141 614.588 459.77 612.536C466.01 611.633 485.386 612.782 491.626 614.424ZM377.094 616.066C378.736 616.887 380.788 618.365 381.609 619.268C383.005 620.746 382.43 620.664 376.683 618.447C373.153 617.133 369.951 615.656 369.54 615.245C368.062 613.849 373.974 614.506 377.094 616.066ZM308.046 627.889C308.374 628.217 308.21 630.105 307.718 631.994C307.225 633.882 306.897 635.524 306.979 635.688C307.143 635.77 309.934 634.621 313.3 632.979C322.414 628.71 331.773 626.575 339.819 626.986C348.933 627.478 353.941 629.777 359.606 636.099C362.069 638.808 364.122 641.271 364.122 641.518C364.122 641.764 361.002 643.57 357.307 645.459L350.411 648.989H310.099H269.704V640.779V632.651L272.824 631.748C276.273 630.844 290.722 627.889 294.745 627.314C298.358 626.821 307.307 627.232 308.046 627.889ZM387.356 631.419C388.506 631.83 386.535 632.897 379.967 635.442C375.123 637.33 369.704 639.547 367.898 640.286L364.778 641.682L365.353 638.562C366.01 634.867 368.473 631.994 371.839 630.926C374.548 630.105 384.893 630.434 387.356 631.419ZM389.984 644.473L389.491 648.989H383.662C378.325 648.989 377.997 648.907 378.982 647.593C380.624 645.623 389.737 639.055 390.23 639.465C390.394 639.711 390.312 641.928 389.984 644.473ZM407.718 647.511C408.456 648.825 408.046 648.989 404.516 648.989C400.082 648.989 399.425 648.25 399.425 642.995V640.697L403.202 643.406C405.255 644.884 407.307 646.772 407.718 647.511ZM371.1 648.168C370.443 649.481 369.54 651.945 369.212 653.669C368.555 656.706 368.391 656.789 364.204 657.363C352.545 659.087 341.79 668.283 334.319 683.143C332.348 687.002 331.856 687.413 328.736 687.905C325.78 688.398 324.22 689.465 319.048 694.802C315.599 698.25 311.166 703.669 309.195 706.706C307.225 709.744 305.501 712.125 305.337 711.961C304.68 711.386 307.635 701.698 309.934 696.854C316.585 682.569 331.199 668.119 351.067 656.296C358.867 651.616 370.115 645.869 371.757 645.787C372.085 645.705 371.839 646.772 371.1 648.168ZM424.22 649.892C455.008 665.327 474.22 684.293 480.296 705.064C482.184 711.633 481.527 712.289 478.079 707.117C470.279 695.376 461.823 687.577 456.732 687.577C455.008 687.577 454.351 687.084 453.941 685.442C453.12 682.158 445.731 671.321 441.379 667.133C436.125 662.043 428.489 658.02 422.824 657.445C418.966 657.035 418.309 656.706 418.309 655.229C418.309 654.243 417.57 651.862 416.667 649.892C414.943 646.115 414.778 645.705 415.435 645.705C415.681 645.705 419.622 647.593 424.22 649.892ZM339.08 656.214C338.588 656.542 335.468 658.923 332.102 661.468C328.736 664.014 323.071 669.104 319.458 672.716L313.054 679.367L307.143 676.493C298.194 672.142 292.2 670.828 280.213 670.828L269.704 670.746V663.11V655.557H304.762C324.056 655.557 339.491 655.885 339.08 656.214ZM388.506 658.184C388.259 659.662 387.274 667.544 386.289 675.672C385.304 683.8 384.236 691.189 383.908 692.092C382.184 696.28 363.793 699.892 351.888 698.332C346.059 697.593 337.603 695.541 336.371 694.555C335.796 694.063 341.215 683.307 344.253 678.71C348.44 672.634 353.284 668.365 359.195 665.491C363.136 663.603 364.696 663.357 371.264 663.439L378.9 663.603L377.34 661.386C376.519 660.237 375.698 658.431 375.369 657.363C374.959 655.557 375.123 655.557 381.938 655.557H388.916L388.506 658.184ZM411.741 656.871C411.741 657.61 411.002 659.416 410.099 660.894L408.456 663.521L416.092 663.439C422.742 663.357 424.22 663.603 428.243 665.656C435.14 669.022 435.714 670.089 430.87 670.746C423.317 671.649 416.256 673.702 410.181 676.493C406.814 678.135 404.023 679.284 403.941 679.202C403.859 679.038 403.366 675.097 402.791 670.335C402.217 665.573 401.56 660.319 401.314 658.595L400.821 655.557H406.322C410.755 655.557 411.741 655.803 411.741 656.871ZM574.302 656.132C574.22 658.102 571.921 673.784 571.675 674.03C571.593 674.112 569.622 675.179 567.323 676.329C565.107 677.478 560.263 680.434 556.65 682.979C540.723 694.063 534.811 696.69 522.989 698.332C515.517 699.317 504.105 698.332 498.194 696.28C490.148 693.488 478.407 686.181 475.944 682.486C471.346 675.672 461.166 665.984 449.836 657.445L447.455 655.639H510.92C545.731 655.557 574.302 655.803 574.302 656.132ZM731.117 664.424V673.291L726.026 675.672C723.153 676.986 716.42 681.091 711.002 684.785C694.171 696.197 688.095 698.414 673.645 698.496C658.456 698.578 652.053 696.362 635.468 685.196C629.639 681.255 623.645 677.396 622.25 676.657C619.869 675.426 619.704 675.097 618.801 666.887C618.227 662.207 617.816 657.774 617.816 656.953C617.816 655.639 621.1 655.557 674.466 655.557H731.117V664.424ZM397.783 681.009C399.097 692.503 400.493 703.176 400.657 704.572C401.149 707.199 401.067 707.281 398.194 707.281C394.171 707.281 392.036 708.595 392.036 710.894C392.036 713.192 393.35 713.849 398.276 713.849C400.246 713.849 401.888 714.096 401.888 714.424C401.888 714.999 405.747 746.526 406.404 750.959L406.814 753.997L402.135 754.243C397.783 754.49 397.373 754.654 397.126 756.46C396.716 759.252 398.933 760.647 403.695 760.647C405.829 760.647 407.635 760.894 407.635 761.222C407.635 761.633 408.374 767.626 409.278 774.605C411.576 792.174 411.741 790.861 406.65 791.189C402.463 791.436 402.299 791.518 402.299 793.899C402.299 796.362 402.381 796.362 407.061 796.608C412.315 796.854 412.233 796.772 412.89 803.504L413.383 808.266H394.91C380.706 808.266 376.437 808.02 376.437 807.199C376.437 806.706 377.176 800.467 378.079 793.488C378.982 786.509 379.721 780.516 379.721 780.105C379.721 779.777 381.691 779.531 384.072 779.531C388.588 779.531 390.394 778.546 390.394 776.082C390.394 774.112 387.931 772.963 383.826 772.963C380.46 772.963 380.46 772.963 380.952 770.253C381.281 768.119 384.647 741.189 384.647 740.368C384.647 740.204 386.617 740.122 388.998 740.122C393.514 740.122 395.32 739.137 395.32 736.674C395.32 734.703 392.857 733.554 388.752 733.554H385.304L385.796 730.434C386.289 727.396 394.417 661.222 394.581 659.416C394.745 656.871 395.402 661.633 397.783 681.009ZM292.857 678.135C298.522 679.284 309.442 683.964 308.949 684.949C308.785 685.278 306.979 689.055 304.844 693.324C301.149 700.877 298.44 710.237 298.44 715.573C298.44 717.462 298.112 718.037 297.291 717.708C294.089 716.477 281.856 715.327 276.19 715.738L269.704 716.148V697.018C269.704 679.449 269.787 677.807 271.182 677.478C274.384 676.657 287.767 676.986 292.857 678.135ZM444.828 681.994C447.455 686.427 450.411 693.324 452.381 699.481C452.791 700.795 453.202 700.549 454.926 697.593C456.076 695.705 457.389 694.145 457.964 694.145C461.084 694.145 475.205 712.864 483.662 728.299L487.685 735.606L488.342 730.27C489.327 722.388 488.424 710.237 486.453 703.751C485.468 700.631 484.811 697.922 484.975 697.757C485.14 697.675 487.192 698.414 489.573 699.564C496.962 703.094 505.501 704.818 515.517 704.818C531.691 704.818 541.626 701.37 556.65 690.614C571.182 680.27 577.34 677.807 590.723 677.15C606.65 676.329 616.42 679.367 631.363 690.04C648.276 702.109 657.8 705.229 675.698 704.572C691.544 704.079 699.097 701.124 715.517 689.383C721.675 684.949 728.654 681.009 730.296 681.009C730.788 681.009 731.117 687.413 731.117 699.81V718.611L727.258 720.089C725.041 720.91 718.309 725.015 712.151 729.12C705.993 733.307 699.097 737.659 696.716 738.808C690.312 742.092 682.594 743.57 672.414 743.488C657.8 743.488 650.164 740.697 635.468 730.27C619.622 718.94 611.002 715.984 594.417 715.984C577.668 715.902 571.1 718.201 553.12 730.434C536.7 741.518 531.281 743.406 516.42 743.488C500.739 743.57 494.91 741.518 477.422 729.613C471.757 725.754 465.271 721.813 462.89 720.746C449.015 714.588 430.542 713.931 415.599 719.186C412.397 720.253 409.606 720.992 409.36 720.746C408.867 720.335 405.255 691.764 405.172 688.316C405.172 686.427 405.993 685.688 411.987 682.733C419.787 678.792 426.847 677.068 435.632 676.986L441.79 676.903L444.828 681.994ZM334.072 700.22C337.685 701.78 343.186 703.504 346.305 704.079C354.68 705.475 370.608 704.654 377.258 702.519C380.131 701.534 382.677 700.959 382.841 701.124C383.251 701.534 378.325 740.122 377.833 740.697C376.437 742.01 366.667 743.406 358.374 743.406C343.268 743.488 338.095 741.6 320.936 730.105C314.532 725.754 308.785 722.059 308.21 721.895C307.389 721.649 308.703 719.022 312.726 713.028C318.883 703.751 325.287 696.362 326.683 696.936C327.176 697.183 330.542 698.578 334.072 700.22ZM295.402 723.619C297.947 724.44 298.44 724.933 298.44 726.821C298.44 728.053 298.686 730.434 298.933 732.158L299.507 735.278L301.888 731.091C304.68 726.165 303.12 725.672 319.13 736.509C330.788 744.309 336.125 746.854 345.238 748.825C351.97 750.22 365.435 750.303 372.167 748.825C375.698 748.086 377.258 748.086 377.258 748.66C377.176 752.191 372.414 787.084 371.921 787.577C371.675 787.905 366.667 788.316 361.002 788.398C344.253 788.89 337.438 786.592 320.608 775.015C304.023 763.603 297.209 761.222 280.624 761.14L269.704 761.058V742.01C269.704 727.642 269.951 722.881 270.772 722.552C272.496 721.813 292.118 722.634 295.402 723.619ZM453.695 723.948C459.606 725.918 465.599 729.202 475.041 735.688C490.805 746.608 500.246 749.892 515.435 749.974C530.952 749.974 540.476 746.772 555.255 736.592C572.496 724.687 579.475 722.059 594.417 722.059C609.36 722.059 616.338 724.687 633.58 736.592C648.358 746.772 657.882 749.974 673.399 749.974C688.588 749.892 697.947 746.608 713.711 735.77C722.332 729.777 728.571 726.165 730.296 726.165C730.788 726.165 731.117 732.486 731.117 744.966V763.685L727.258 765.163C725.041 765.984 718.145 770.171 711.823 774.44C694.253 786.427 688.342 788.562 673.235 788.562C657.964 788.562 651.067 786.099 635.222 775.179C618.227 763.357 611.658 761.14 594.417 761.14C577.258 761.14 570.608 763.357 553.777 775.015C537.767 786.099 530.87 788.562 515.599 788.562C500.493 788.562 494.992 786.509 476.765 774.358C464.286 765.984 459.278 763.685 449.672 761.797C439.409 759.826 424.548 760.729 416.502 763.849C414.778 764.506 414.204 764.506 414.204 763.685C414.204 763.192 413.3 755.311 412.151 746.28C411.002 737.248 410.099 729.613 410.099 729.284C410.099 728.217 416.667 725.261 422.66 723.619C427.504 722.306 430.46 722.142 439.245 722.388C445.484 722.634 451.478 723.209 453.695 723.948ZM298.604 769.843C304.598 772.059 311.494 776.082 322.25 783.636C334.893 792.421 346.47 795.705 362.726 794.884L371.675 794.473L371.182 798.332C370.854 800.385 370.443 803.504 370.197 805.147L369.704 808.266H319.704H269.704V788.316C269.704 777.314 269.951 768.037 270.361 767.708C270.69 767.298 275.944 767.215 282.02 767.462C291.215 767.708 294.089 768.201 298.604 769.843ZM455.665 769.761C459.442 770.992 465.271 774.276 472.906 779.449C486.864 788.808 493.76 792.174 502.874 793.981C515.681 796.526 532.923 794.555 543.103 789.383C544.663 788.562 551.149 784.375 557.553 780.105C573.563 769.35 579.803 767.215 594.828 767.215C603.53 767.215 612.726 769.104 618.719 772.142C620.608 773.127 627.258 777.396 633.498 781.583C639.737 785.77 646.962 790.04 649.589 791.025C664.86 796.772 684.236 796.444 698.03 790.204C700.903 788.89 708.456 784.293 714.943 780.023C721.346 775.754 727.586 771.895 728.9 771.403L731.117 770.5V789.383V808.266H575.534C489.984 808.266 419.951 808.184 419.869 808.02C419.048 805.393 415.435 771.485 415.928 770.992C416.338 770.582 419.13 769.514 422.167 768.693C430.46 766.477 447.701 767.051 455.665 769.761Z" fill="#F9F9F9"/>
<path d="M487.685 205.311C486.946 206.132 486.535 207.445 486.782 208.431C486.946 209.416 488.177 215.656 489.409 222.47C490.558 229.202 491.954 235.278 492.365 235.771C493.514 237.166 495.895 237.084 497.044 235.688C497.783 234.785 497.455 231.419 495.484 220.992C494.171 213.603 493.021 207.281 493.021 207.035C493.021 206.296 490.558 203.997 489.737 203.997C489.327 203.997 488.424 204.572 487.685 205.311Z" fill="#F9F9F9"/>
<path d="M516.174 205.803C515.764 206.378 514.122 213.028 512.48 220.582C509.442 235.442 509.524 237.248 513.629 236.674C515.517 236.427 515.764 235.688 518.719 221.731C521.1 210.565 521.593 206.789 520.854 205.968C519.704 204.572 517.324 204.49 516.174 205.803Z" fill="#F9F9F9"/>
<path d="M462.315 215.163C461.576 215.82 461.002 216.723 461.002 217.051C461.002 217.626 463.547 221.895 474.056 239.137C475.205 241.025 476.847 242.831 477.668 243.077C479.393 243.652 481.527 242.092 481.527 240.286C481.527 238.808 467.898 216.312 466.092 214.834C464.45 213.521 463.875 213.603 462.315 215.163Z" fill="#F9F9F9"/>
<path d="M536.782 228.381C532.266 234.621 528.407 240.286 528.161 241.107C527.422 242.913 529.31 245.294 531.281 244.884C532.923 244.555 549.507 222.47 549.59 220.335C549.672 218.693 548.03 217.133 546.305 217.133C545.402 217.133 541.79 221.321 536.782 228.381Z" fill="#F9F9F9"/>
<path d="M501.396 233.718C500 235.114 500 253.34 501.396 254.736C502.135 255.475 501.888 255.721 500.246 255.721C499.015 255.721 497.537 255.967 496.88 256.214C495.895 256.542 495.731 256.214 496.059 254.9C496.634 252.601 491.626 238.48 489.573 236.674C487.685 234.949 484.811 235.935 484.811 238.316C484.811 240.697 490.558 255.229 491.79 256.214C492.857 256.953 492.447 257.527 489.737 259.334C486.535 261.386 486.453 261.468 486.453 259.744C486.453 258.759 483.908 255.229 480.542 251.534C475.698 246.279 474.138 245.048 472.496 245.212C470.854 245.376 470.443 245.951 470.443 247.675C470.443 250.713 481.855 263.439 484.154 262.864C485.468 262.454 485.386 262.782 483.662 264.834C482.594 266.066 481.527 267.626 481.281 268.201C481.034 268.94 480.46 268.693 479.392 267.462C478.571 266.477 474.384 264.178 470.197 262.289C464.121 259.662 462.233 259.169 460.92 259.826C459.113 260.811 458.867 263.275 460.427 264.588C462.644 266.394 476.847 272.142 478.161 271.731C479.475 271.321 479.475 271.649 478.736 274.933C478.161 277.314 477.586 278.381 477.011 277.971C475.944 277.068 459.934 276 457.8 276.657C455.747 277.314 455.008 279.202 456.076 281.255C456.897 282.651 457.882 282.815 466.585 282.815C473.071 282.815 476.601 282.486 477.258 281.83C477.997 281.091 478.243 281.255 478.243 282.897C478.243 283.964 478.489 285.77 478.818 286.838C479.228 288.48 479.064 288.726 477.915 288.316C475.862 287.495 459.524 294.227 458.867 296.115C458.374 297.839 459.77 300.056 461.412 300.056C463.629 300.056 477.915 294.145 479.146 292.749C480.296 291.353 480.46 291.435 482.184 294.391C483.826 297.183 483.826 297.593 482.677 297.593C481.938 297.593 478.407 300.467 474.795 303.915C469.622 309.005 468.391 310.647 468.555 312.371C468.719 313.849 469.376 314.506 470.772 314.67C472.332 314.917 474.138 313.603 479.146 308.595C482.759 305.064 485.632 301.452 485.632 300.713C485.632 299.399 486.043 299.481 488.916 301.37C492.036 303.422 492.118 303.587 490.558 304.9C488.588 306.542 483.005 320.171 483.333 322.47C483.498 323.866 484.154 324.276 485.961 324.276C488.259 324.276 488.588 323.784 491.954 315.738C493.924 310.976 495.32 306.624 495.074 305.967C494.745 304.982 495.156 304.9 497.209 305.311C498.604 305.557 500.41 305.803 501.067 305.803C502.053 305.803 502.135 306.05 501.396 306.789C500.739 307.445 500.41 310.976 500.41 317.38C500.41 325.097 500.657 327.15 501.724 328.053C502.627 328.792 503.366 328.874 504.351 328.217C505.501 327.56 505.747 325.672 505.993 317.708C506.158 311.304 505.911 307.692 505.254 306.953C504.516 306.05 504.598 305.803 505.829 305.803C506.732 305.803 508.128 305.557 509.113 305.311C510.591 304.9 510.755 305.146 510.591 307.199C510.427 308.513 511.658 312.864 513.383 317.298C516.092 324.276 516.667 325.097 518.719 325.344C520.197 325.508 521.1 325.179 521.511 324.194C522.167 322.552 517.898 309.826 515.517 306.214L513.793 303.669L516.995 301.862L520.115 299.974V301.78C520.115 304.325 532.266 316.641 534.483 316.312C535.632 316.148 536.207 315.327 536.371 313.767C536.617 311.879 535.55 310.401 530.296 304.982C526.765 301.37 523.481 298.414 522.906 298.414C522.167 298.414 522.414 297.511 523.645 295.541C525.452 292.749 526.683 291.928 526.683 293.57C526.683 294.063 530.213 296.115 534.565 298.086C543.432 302.273 546.798 302.601 546.798 299.235C546.798 297.429 545.731 296.69 538.998 293.324C534.483 291.025 530.296 289.465 529.146 289.629C527.094 289.876 527.094 289.793 527.832 286.427C528.489 283.554 528.9 283.061 529.967 283.636C530.706 284.046 535.304 284.457 540.148 284.539C547.373 284.621 549.261 284.375 550.328 283.307C551.396 282.24 551.478 281.665 550.821 280.516C550.082 279.449 548.112 278.956 540.969 278.463C534.729 277.971 531.527 278.053 530.542 278.71C528.654 279.859 528.654 279.859 527.997 275.754C527.586 272.552 527.586 272.388 529.392 272.716C531.527 273.127 545.813 267.708 547.209 265.984C548.604 264.26 547.865 261.879 545.731 261.633C543.596 261.304 530.706 265.984 528.079 268.036C526.355 269.432 526.19 269.35 524.056 266.394C522.332 263.931 522.167 263.357 523.317 263.685C524.302 263.931 527.011 261.961 531.527 257.692C537.028 252.519 538.177 250.959 538.013 249.235C537.849 247.511 537.356 247.1 535.55 247.1C533.99 247.1 531.773 248.743 527.176 253.176C523.727 256.46 520.936 259.908 520.936 260.729C520.936 262.125 520.608 262.043 517.816 260.073C514.86 257.938 514.778 257.692 516.092 256.542C517.734 255.146 523.399 241.764 523.399 239.383C523.399 237.166 521.346 235.688 519.54 236.674C517.734 237.659 510.837 253.751 511.494 255.475C511.823 256.46 511.494 256.624 510.099 256.214C509.031 255.967 507.307 255.721 506.24 255.721C504.598 255.721 504.433 255.475 505.172 254.736C505.829 254.079 506.158 250.549 506.158 244.227C506.158 234.949 505.583 232.733 503.284 232.733C502.791 232.733 501.97 233.143 501.396 233.718ZM508.21 262.371C512.644 263.521 517.898 267.872 520.279 272.47C522.66 276.986 522.66 284.375 520.361 288.972C511.084 306.706 484.565 300.631 484.565 280.762C484.565 271.977 489.901 264.917 498.768 262.207C501.806 261.304 504.187 261.386 508.21 262.371Z" fill="#F9F9F9"/>
<path d="M440.476 235.606C439.984 236.263 439.737 237.412 440.066 238.233C440.312 239.054 445.649 243.324 451.97 247.757C464.286 256.378 467.159 257.445 467.159 253.094C467.159 251.123 465.599 249.728 455.747 242.585C449.425 238.069 443.678 234.375 442.939 234.375C442.118 234.375 441.051 234.949 440.476 235.606Z" fill="#F9F9F9"/>
<path d="M553.038 244.637C546.47 248.907 540.805 253.012 540.394 253.669C539.491 255.393 542.036 258.431 543.842 257.774C544.581 257.527 550.41 253.915 556.814 249.728C565.599 244.063 568.555 241.764 568.555 240.45C568.555 238.644 567.077 236.838 565.764 236.838C565.271 236.838 559.524 240.368 553.038 244.637Z" fill="#F9F9F9"/>
<path d="M427.915 263.685C427.012 264.588 427.258 266.969 428.407 267.872C428.982 268.365 435.714 270.089 443.35 271.649C458.21 274.851 459.688 274.687 459.195 270.582C458.949 268.529 458.539 268.365 446.223 265.82C433.498 263.192 428.9 262.618 427.915 263.685Z" fill="#F9F9F9"/>
<path d="M561.741 267.215C554.68 268.529 548.44 269.843 548.03 270.089C546.716 270.91 547.126 274.605 548.604 275.179C549.754 275.672 575.369 271.813 578.161 270.746C580.952 269.678 579.639 264.67 576.519 264.834C575.534 264.917 568.883 265.984 561.741 267.215Z" fill="#F9F9F9"/>
<path d="M442.282 288.069C431.691 289.958 427.832 290.943 427.258 292.01C426.355 293.57 427.011 295.623 428.571 296.28C430.131 296.854 456.897 292.092 458.21 290.943C459.77 289.629 459.606 287.084 457.964 286.263C456.979 285.771 451.56 286.427 442.282 288.069Z" fill="#F9F9F9"/>
<path d="M548.276 287.495C547.701 287.659 547.209 288.726 547.209 289.793C547.209 290.779 547.701 292.01 548.276 292.503C549.754 293.652 576.273 298.825 577.833 298.168C579.967 297.347 579.639 293.652 577.422 292.667C575.698 291.928 550.821 286.838 549.754 287.002C549.507 287.002 548.769 287.248 548.276 287.495Z" fill="#F9F9F9"/>
<path d="M334.811 288.644C332.02 291.436 334.319 294.309 339.245 294.309C345.32 294.309 348.358 296.115 350.411 300.877C351.724 303.997 352.545 304.982 353.941 304.982C355.993 304.982 357.143 303.751 357.882 300.713C358.621 297.429 362.562 295.048 368.227 294.555C370.936 294.309 373.563 293.57 374.056 292.995C375.369 291.353 374.138 288.644 371.839 288.069C368.719 287.248 360.92 289.137 357.389 291.436L354.351 293.488L350.246 290.943C345.567 287.987 336.617 286.674 334.811 288.644Z" fill="#F9F9F9"/>
<path d="M631.773 297.183C631.281 297.839 631.034 299.071 631.281 299.892C631.691 301.123 632.923 301.616 636.946 302.027C643.103 302.601 645.567 304.243 648.03 309.416C650.493 314.506 652.709 314.424 655.337 308.923C657.553 304.325 659.36 303.176 665.764 302.601C671.182 302.027 673.153 300.385 671.511 297.757C670.772 296.69 669.458 296.362 665.189 296.444C660.591 296.444 659.113 296.854 655.501 299.153L651.232 301.78L649.507 300.138C645.402 296.279 634.154 294.391 631.773 297.183Z" fill="#F9F9F9"/>
<path d="M450.328 311.222C439.819 318.036 438.424 319.268 438.424 321.238C438.424 325.508 441.544 324.523 454.023 316.394C464.778 309.416 466.667 307.856 466.749 306.46C466.749 305.557 464.204 303.34 463.218 303.34C462.644 303.422 456.897 306.953 450.328 311.222Z" fill="#F9F9F9"/>
<path d="M540.394 305.885C538.424 307.035 538.67 309.334 540.887 311.304C544.581 314.588 562.726 327.15 563.793 327.15C565.353 327.15 566.913 325.508 566.913 323.784C566.913 322.88 562.808 319.432 556.076 314.588C542.857 305.229 542.282 304.9 540.394 305.885Z" fill="#F9F9F9"/>
<path d="M472.742 318.283C469.458 322.059 456.897 340.204 456.897 341.271C456.897 342.831 458.539 344.391 460.263 344.391C461.084 344.391 464.696 340.204 469.376 333.472C478.818 320.335 479.146 319.761 478.161 317.872C477.011 315.902 474.713 316.148 472.742 318.283Z" fill="#F9F9F9"/>
<path d="M525.944 319.268C525.369 319.925 525.041 320.992 525.205 321.649C525.369 322.306 528.818 328.217 532.841 334.867C539.327 345.459 540.476 346.854 542.2 346.69C546.634 346.115 546.223 344.473 538.013 331.173C530.131 318.365 528.243 316.477 525.944 319.268Z" fill="#F9F9F9"/>
<path d="M492.036 324.851C490.23 326.329 484.647 353.176 485.714 355.229C486.617 356.953 489.163 357.199 490.394 355.639C490.805 355.147 492.529 348.414 494.089 340.697C496.798 327.889 496.88 326.657 495.731 325.344C494.171 323.619 493.76 323.537 492.036 324.851Z" fill="#F9F9F9"/>
<path d="M509.524 325.836C508.867 326.657 509.277 330.352 511.166 340.779C512.562 348.414 514.121 355.147 514.532 355.639C515.681 357.035 518.062 356.953 519.212 355.557C519.951 354.654 519.54 351.206 517.57 340.615C516.174 332.979 514.614 326.247 514.204 325.672C513.054 324.358 510.673 324.44 509.524 325.836Z" fill="#F9F9F9"/>
<path d="M372.332 363.685C371.018 365.327 372.085 368.119 374.22 368.529C375.205 368.775 377.832 369.104 379.967 369.268C384.647 369.678 386.782 371.403 388.834 376.247C390.887 380.926 393.35 380.762 395.731 375.836C397.865 371.238 400.328 369.678 406.24 369.104C411.741 368.529 413.711 366.887 412.069 364.26C410.181 361.304 400.985 362.371 395.074 366.23L391.954 368.283L389.491 366.23C385.222 362.618 374.548 361.058 372.332 363.685Z" fill="#F9F9F9"/>
<path d="M577.176 367.626C576.437 370.499 577.176 371.485 580.296 371.485C586.946 371.485 592.529 374.522 593.596 378.71C594.992 384.293 598.358 384.539 600.575 379.284C602.545 374.605 606.158 372.306 611.412 372.306C615.189 372.306 617.816 370.828 617.816 368.693C617.816 364.342 607.061 364.834 600.246 369.432L597.291 371.403L593.678 368.857C590.558 366.723 589.081 366.23 583.826 365.902C577.75 365.573 577.668 365.573 577.176 367.626Z" fill="#F9F9F9"/>
<path d="M671.182 367.298C670.772 368.201 670.608 369.432 670.854 370.171C671.346 371.485 674.056 372.634 675.123 371.977C676.273 371.321 683.005 373.127 684.647 374.605C685.468 375.344 686.864 377.56 687.685 379.531C689.737 384.293 692.118 384.046 694.746 378.874C697.126 374.194 699.097 372.963 705.172 372.388C710.591 371.813 712.562 370.171 710.92 367.544C709.031 364.588 697.126 366.148 693.76 369.843C691.872 371.977 691.215 371.895 688.342 369.432C683.744 365.573 672.824 364.26 671.182 367.298Z" fill="#F9F9F9"/>
<path d="M288.916 391.435C287.767 394.555 288.916 395.705 293.678 396.279C300.328 397.1 303.202 398.825 305.09 403.094C305.993 405.064 307.061 406.953 307.471 407.199C309.113 408.184 311.494 406.706 311.987 404.408C312.233 403.094 313.547 401.041 314.86 399.81C316.831 397.921 318.227 397.347 322.167 397.1C327.997 396.69 330.378 394.884 328.818 392.092C327.176 388.89 316.338 390.122 311.658 394.145L309.195 396.197L305.419 393.488C302.135 391.189 300.821 390.779 295.566 390.532C290.558 390.286 289.327 390.45 288.916 391.435Z" fill="#F9F9F9"/>
</svg>
